<svg xmlns="http://www.w3.org/2000/svg" xmlns:xlink="http://www.w3.org/1999/xlink" xmlns:inkscape="http://www.inkscape.org/namespaces/inkscape" version="1.1" width="143.5648" height="138.561" viewBox="126.1566 130.3324 143.5648 138.561">
<path transform="matrix(.1,0,0,-.1,0,803.25)" d="M1913.97 5859.81C1914.75 5856.96 1913.59 5853.83 1910.94 5852.23 1908.3 5850.63 1904.91 5851.02 1902.7 5853.17 1898.24 5857.51 1899.45 5863.96 1901.23 5868.04 1903 5872.07 1905.6 5875.7 1908.21 5879.14 1917.68 5890.6 1925.7 5902.37 1942.26 5909.39 1967.21 5920.04 1999.86 5926.09 2025.15 5929.25 2037.37 5930.62 2050.23 5931.21 2063.07 5930.75 2070.62 5930.36 2078.67 5930.17 2086.66 5926.79 2092.98 5924.25 2096.78 5918.97 2099.09 5914.38 2101.32 5909.91 2102.53 5905.57 2103.6 5901.86 2108.37 5885.43 2111.06 5873.28 2116.74 5859.41 2123.38 5843.44 2141.56 5829.86 2159.81 5823.28 2155.87 5813.46 2155.09 5804.03 2156.17 5795.44 2129.86 5804.14 2103.75 5822.78 2093.45 5850.28 2087.36 5866.32 2084.9 5879.71 2080.73 5895.55L2077.97 5904.12 2077.03 5905.72C2075.1 5906.45 2069.04 5907.11 2062.11 5907.43 2050.4 5908.13 2038.59 5907.86 2027.52 5906.89 2003.47 5905.09 1971.66 5900.11 1949.25 5891.8 1937.12 5887.29 1931.32 5879.64 1921.11 5868.42L1914.53 5860.83ZM2216.75 5660.57C2213.07 5659.99 2209.3 5659.45 2205.46 5658.98 2189.22 5657.03 2171.39 5656.66 2152.95 5661.93 2137.46 5667.06 2120.56 5668.29 2103.46 5668.67 2094.98 5668.75 2088.19 5669.11 2083.82 5667.8 2081.51 5667 2078.93 5664.01 2076.08 5658.59 2073.06 5652.84 2070.26 5645.34 2065.32 5638.25 2056.51 5625.93 2041.7 5620.78 2026.82 5620.52 2011.73 5620.26 1995.63 5624.32 1980.06 5630.89L1958.76 5639.33C1947.75 5644.25 1938.28 5651.16 1930.8 5657.13L1920.45 5665.49 1918.36 5667.34C1914.34 5669.88 1912.91 5675.1 1915.17 5679.33 1916.84 5682.45 1920.17 5684.31 1923.7 5684.1 1929.11 5683.77 1929.83 5681.98 1931.66 5680.7L1942.45 5671.48C1949.21 5665.96 1957.51 5659.87 1966.25 5655.86L1987.03 5647.42C2000.81 5641.76 2014.81 5638.57 2026.4 5638.89 2037.43 5639.21 2045.45 5642.64 2049.88 5649.01 2053.24 5653.71 2055.98 5660.45 2059.68 5667.31 2063.46 5674.31 2068.86 5682.15 2078.31 5685.29 2086.59 5688.44 2095.19 5688.07 2103.18 5688.47 2120.88 5689.59 2139.94 5690.04 2159.13 5685.4 2176.2 5680.51 2193.25 5681.86 2210.57 5684.38 2211.29 5682.21 2212.13 5680.1 2213.07 5678.04L2216.68 5662.99C2216.73 5662.76 2216.51 5662.24 2216.75 5660.57M1906.34 5663.68C1908 5664.23 1909.8 5663.34 1910.36 5661.68 1910.9 5660.06 1910.06 5658.3 1908.46 5657.7L1907.95 5657.46C1907.89 5657.42 1908.7 5658.71 1908.48 5658.21 1908.28 5657.73 1908.42 5660.45 1908.58 5659.92L1908.11 5660.78 1912.14 5659.98V5661L1912.32 5661.45 1912.36 5660.92C1912.3 5661.25 1913.25 5659.09 1912.91 5659.61 1912.41 5660.38 1912.08 5661.25 1911.94 5662.15 1911.85 5662.72 1912.63 5660.3 1912.43 5660.69 1912.06 5661.36 1913.33 5659.59 1913.23 5659.68 1912.83 5659.98 1905.46 5661.88 1899.81 5661.94 1893.97 5662.01 1890.27 5658.62 1887.43 5651.43 1884.36 5643.69 1883.22 5632.69 1883.36 5621.19 1884.26 5587.68 1883.94 5554.26 1883.82 5522.11 1883.45 5498.32 1885.01 5472.25 1879.1 5450.68 1877.07 5443.27 1873.95 5436.46 1868.03 5431.9 1861.36 5426.62 1852.27 5426.13 1843.5 5425.75L1831.73 5425.39C1826.14 5425.97 1820.09 5428.25 1817.57 5434.19 1815.63 5439.5 1817.66 5443.36 1819.22 5446.71L1823.75 5455.95C1830.22 5472.17 1827.95 5494.43 1827.42 5516.5 1827.14 5524.38 1826.42 5532.7 1826.84 5540.57 1827.15 5552.83 1831.53 5562.51 1833.14 5570.89 1835.58 5578.98 1837.16 5585.91 1836.63 5590.15 1836.5 5590.64 1835.88 5591.41 1831.82 5592.48 1827.27 5593.68 1820.48 5594.04 1813.09 5594.16 1803.71 5594.44 1794.15 5595.82 1785.81 5596.61L1773.76 5598.76C1773.59 5598.72 1776.37 5599.68 1775.88 5599.39L1776.77 5600.1 1776.95 5600.28 1775.84 5593.97 1772.03 5506.22C1771.09 5490.21 1769.19 5476.14 1765.82 5460.22 1761.76 5443.1 1754.61 5427.01 1739.63 5420.54 1731.66 5416.9 1722.64 5415.74 1713.99 5415.2 1709.36 5414.91 1704 5414.02 1698.14 5415.57 1693.83 5416.45 1689.63 5419.58 1687.35 5423.51 1680.68 5434.95 1684.84 5449.26 1689.1 5461.91L1696.93 5482.23C1703.3 5499.51 1709.4 5519.65 1709.49 5542.69L1709.15 5583.39C1708.94 5590.39 1709.3 5596.74 1708.5 5600.57 1708 5602.95 1706.39 5604.2 1700.91 5605.1 1694.92 5606.07 1686.82 5605.3 1680.07 5603.67 1670.94 5601.92 1663.09 5594.98 1651.95 5586.08L1637.15 5574.66 1621.87 5564.34 1614.78 5558.96 1614.42 5552.87 1616.78 5539.64C1617.77 5535 1617.25 5530.96 1617.32 5529.71L1617.88 5524.64 1618.42 5518.01 1618.53 5516.29 1618.55 5516.08C1618.56 5516.01 1618.24 5517.41 1618.38 5516.88 1619.94 5511.07 1616.5 5505.09 1610.68 5503.53 1605.62 5502.17 1600.31 5504.61 1598.04 5509.34 1596.23 5513.11 1596.63 5514.28 1596.41 5515.97L1595.76 5520.81 1595.4 5529.45 1595.91 5536.81 1593.28 5550.15C1592.49 5555.88 1591.99 5562.85 1596.09 5569.7 1600.95 5576.9 1606.6 5578.85 1610.42 5581.26L1626.01 5590.66 1639.71 5601.06C1649.6 5609.87 1659.24 5620.68 1674.89 5624.63 1684.36 5626.53 1694.68 5627.41 1704.64 5625.36 1709.64 5624.34 1714.67 5622.51 1719 5619.09 1723.39 5615.61 1726.79 5610.23 1727.79 5604.19 1729.05 5596.48 1728.05 5589.41 1727.99 5583.47L1727.64 5542.5C1727.28 5516.39 1720.14 5494.12 1713.17 5475.98L1705.81 5456.06C1702.81 5448.68 1700.68 5441.21 1700.41 5435.76 1700.17 5430.88 1700.67 5430.09 1702.11 5429.66L1712.93 5430.08C1720.64 5430.72 1728.02 5432.05 1733.2 5434.57 1740.92 5438.5 1745.53 5448.8 1748.31 5463.71 1751.59 5479.11 1753.37 5492.06 1754.28 5507.13L1761.46 5595.16 1762.36 5604.07C1763.18 5607.5 1765.33 5612.67 1771.19 5614.17 1777 5616 1782.3 5614.69 1786.86 5614.59L1813.56 5612.01C1821.44 5611.63 1829.32 5611.17 1836.54 5608.93 1843.77 5606.7 1851.5 5601.13 1852.86 5592.41 1854.84 5584.18 1852.99 5575.2 1851.32 5567.23 1847.59 5555.7 1842.8 5548.14 1841.54 5539.14 1840.87 5532.98 1841.13 5524.89 1841.02 5516.57 1841 5495.18 1843.42 5471.26 1834.79 5451.24L1830.25 5441.67 1829.14 5438.64C1829.02 5438.09 1828.68 5439.43 1828.93 5438.8 1829.07 5438.41 1830.05 5437.28 1833.18 5436.77L1843.23 5436.46C1851.31 5436.76 1858.47 5437.82 1861.58 5440.24 1864.91 5442.9 1866.97 5447.14 1868.6 5453.47 1873.51 5472.62 1871.9 5498 1871.93 5522.14 1872.35 5554.38 1872.98 5587.68 1872.38 5621.02 1871.99 5633.28 1872.79 5645.46 1876.51 5655.59 1880.17 5665.55 1888.39 5674.16 1899.8 5674.32L1913.07 5673.08 1919.17 5671.05C1921.18 5670.03 1923.86 5668.36 1924.69 5664.55 1924.89 5663.65 1924.89 5662.73 1924.71 5661.83 1923.85 5657.74 1921.53 5655.97 1919.13 5654.52 1916.71 5653.06 1913.48 5652.2 1910.6 5653.4 1908.81 5653.44 1906.27 5653.97 1904.19 5655.51 1903.09 5656.32 1901.59 5658.44 1902.48 5660.63 1903.33 5662.68 1904.88 5663.18 1906.34 5663.68M1611.89 5523.66C1616.79 5521.46 1618.99 5515.7 1616.79 5510.79 1614.59 5505.89 1608.84 5503.69 1603.93 5505.89 1599.02 5508.09 1596.83 5513.84 1599.03 5518.75 1600.42 5521.86 1603.34 5524.01 1606.71 5524.43 1607.64 5524.55 1604.38 5523.84 1604.82 5524 1605.61 5524.27 1602.81 5523.02 1603.18 5523.24 1603.81 5523.62 1601.84 5522.21 1602.04 5522.4L1602.32 5523.01 1604.06 5527.02 1603.73 5525.23C1603.98 5537.84 1608.01 5553.03 1608.73 5565.63L1609.79 5580.73 1609.95 5596.14 1608.94 5603.2 1608.57 5605.2 1608.7 5604.84C1608.61 5605.08 1609.62 5603.08 1609.28 5603.67 1609.09 5603.99 1610.59 5601.9 1610.15 5602.42L1611.06 5601.46C1610.64 5601.85 1613.82 5599.6 1612.91 5600.11 1608.03 5602.89 1606.32 5609.09 1609.09 5613.97 1611.86 5618.86 1618.07 5620.57 1622.95 5617.8 1627.84 5615.02 1629.55 5608.82 1626.77 5603.93 1625.84 5602.29 1624.46 5600.94 1622.8 5600.03 1621.89 5599.53 1625.1 5601.73 1624.68 5601.35 1623.91 5600.66 1626.43 5603.39 1626.14 5602.98 1625.62 5602.25 1627.14 5604.78 1627 5604.47 1626.77 5603.96 1627.25 5605.14 1627.25 5605.13L1625.88 5595.28 1626.08 5580.54 1625.04 5564.2C1622.27 5549.25 1616.74 5534.68 1614.89 5524.14L1614.91 5525.96 1615.95 5520.3 1616.07 5519.8C1616.14 5519.64 1615.14 5521.27 1615.51 5520.76 1615.71 5520.48 1614.14 5522.26 1614.59 5521.83L1613.68 5522.6C1614.09 5522.3 1610.98 5524.06 1611.89 5523.66M1607.59 5609.16C1607.64 5614.86 1612.32 5619.45 1618.03 5619.4 1623.66 5619.35 1628.22 5614.79 1628.27 5609.16L1628.33 5597.66 1628.86 5550.31C1628.99 5534.7 1630.9 5517.64 1632.91 5499.34 1634.21 5487.44 1635.92 5476.86 1635.43 5465.09 1634.57 5447.5 1625.78 5433.17 1613.66 5425.85 1601.68 5418.63 1586.54 5417.81 1574.06 5424.15 1561.97 5430.38 1552.36 5440.43 1547.02 5453.14 1541.61 5466.04 1540.21 5481.57 1542.2 5499.21 1544.74 5524.75 1552.01 5552.95 1559.46 5573.09 1563.75 5585.38 1560.1 5592.09 1552.65 5597.56 1543.44 5605.29 1536.82 5613.52 1528.27 5619.07L1519.59 5622.82 1513.72 5622.79C1513.3 5622.69 1512.88 5622.62 1512.45 5622.57 1510.3 5622.32 1508.31 5621.14 1507.19 5619.28 1505.51 5615.8 1506.24 5605.17 1508.1 5596.05 1510.25 5584.79 1512.74 5573.76 1513.61 5560.69 1514.35 5551.27 1514.07 5542 1513.82 5533.79 1513.68 5527.25 1514.02 5519.62 1511.75 5511.41 1510.46 5507.49 1509.23 5502.83 1505.71 5498.28 1501.16 5491.83 1493.56 5489.23 1486.66 5488.38 1479.81 5487.54 1472.97 5488.25 1466.81 5489.81 1456.56 5492.56 1449.63 5500.19 1444.95 5508.09 1440.3 5515.94 1437.44 5524.49 1435.3 5532.1 1424.83 5566.93 1433.18 5602.22 1444.28 5636.57 1448.05 5649.09 1450.75 5662.1 1455.43 5674.86L1462.89 5690.97 1469.39 5706.4C1470.7 5710.73 1470.54 5713.67 1470.37 5714.11 1470.52 5713.7 1471.79 5711.83 1471.58 5712.04L1471.42 5712.07 1469.15 5713.11 1458.12 5717.8C1457.42 5718.05 1456.74 5718.38 1456.1 5718.75L1449.62 5722.82C1446.86 5724.97 1444.01 5728.54 1442.89 5732.65L1443.45 5731.12C1437.94 5742.93 1442.63 5754.38 1444.19 5763.23L1446.48 5773.96 1446.87 5772.15 1445.94 5772.54C1441.86 5774.48 1432.32 5775.44 1424.52 5774.52 1402.67 5771.88 1386.86 5759.39 1374.21 5740.94 1361.14 5721.89 1351.39 5696.89 1340.92 5670.96 1328.68 5639.93 1324.61 5601.69 1319.03 5568.93 1316.36 5552.88 1313.14 5536.3 1312.4 5520.78 1311.94 5512.21 1311.86 5504.23 1312.79 5496.54L1315.19 5486.3C1316.63 5480.57 1317.03 5476.63 1316.62 5473.22 1316.12 5468.97 1312.27 5465.94 1308.02 5466.44 1303.78 5466.95 1300.74 5470.8 1301.25 5475.04 1301.29 5475.4 1301.36 5475.76 1301.45 5476.11 1301.62 5476.75 1301.22 5474.5 1301.23 5474.79 1301.31 5476.14 1295.93 5489.57 1296.92 5501.25 1297.27 5505.36 1300.89 5508.41 1305 5508.06 1309.04 5507.72 1312.07 5504.21 1311.82 5500.16 1311.66 5497.69 1312.7 5492.09 1313.97 5486.9L1315.77 5479.8C1316.27 5477.78 1317.32 5477.26 1316.57 5472.83L1301.56 5476.49C1301.79 5477.19 1301.33 5475.49 1301.34 5475.55L1300.6 5482.99 1297.98 5494.76C1296.89 5503.68 1296.98 5512.55 1297.45 5521.53 1298.45 5538.52 1302 5555.55 1304.82 5571.4 1310.42 5603.59 1314.52 5642.7 1327.86 5676.2 1337.95 5702.18 1347.47 5728.17 1361.57 5749.46 1375.49 5770.48 1395.4 5787.11 1422.45 5790.79 1430.15 5791.86 1438.54 5791.81 1446.16 5790.13 1449.95 5789.29 1453.6 5788.08 1456.93 5785.75 1460.33 5783.37 1463.6 5778.96 1463.7 5773.75 1463.95 5768.63 1462.62 5764.43 1462.13 5760.52 1460.77 5750.85 1460.14 5740.4 1460.55 5739.6L1459.68 5740.97 1458.84 5741.7 1459.58 5741.58 1464.26 5740.85C1465 5740.72 1465.72 5740.52 1466.42 5740.26L1479.07 5734.64C1483.56 5731.96 1489.23 5728.53 1491.28 5721.04 1493.91 5714.18 1492.4 5706.66 1490.31 5699.98 1488.23 5693.33 1485.2 5687.06 1482.33 5681.31L1475.71 5667.09C1470.98 5656.18 1467.6 5643.62 1462.8 5630.25 1451.74 5597.4 1444.42 5566.53 1452.85 5537.08 1456.96 5523.61 1464.32 5510.2 1471.45 5508.46 1475.64 5507.38 1480.46 5506.92 1484.36 5507.38 1488.04 5507.81 1490.01 5509.06 1490.43 5509.65L1492.57 5516.5C1494.13 5521.55 1494.29 5527.57 1494.67 5534.59 1495.04 5542.63 1495.39 5551.2 1494.86 5559.46 1494 5570.81 1491.65 5580.84 1489.36 5592.25 1487.41 5602.64 1484.66 5616.21 1490.9 5628.37 1493.7 5635.3 1500.46 5641.01 1508.38 5643.23 1508.8 5643.35 1509.21 5643.44 1509.64 5643.5 1514.88 5644.3 1520.21 5643.76 1525.23 5642.21 1529.56 5641.08 1534.4 5639.09 1539.06 5636.28 1550.89 5629.5 1559.07 5620.55 1565.86 5615.6 1572.82 5609.8 1578.1 5602.65 1580.41 5594.09 1582.75 5585.45 1581.9 5575.65 1578 5565.93 1571.11 5547.82 1563.92 5520.5 1561.42 5497.11 1559.99 5481.95 1561.66 5469.93 1565.59 5461.23 1569.35 5452.89 1575.25 5447.07 1583.45 5443.13 1595.11 5437.44 1612.51 5444.77 1613.31 5465.96 1613.71 5475.17 1612.29 5484.61 1610.97 5496.96 1609.03 5515.32 1607.07 5533.03 1607.01 5550.07L1607.54 5597.75ZM1323.07 5505.44C1324.63 5506.75 1326.96 5506.54 1328.27 5504.98 1329.58 5503.42 1329.38 5501.09 1327.81 5499.78 1327.78 5499.75 1327.74 5499.72 1327.71 5499.7 1327.24 5499.33 1324.21 5478.84 1323.33 5463.59 1322.91 5456.39 1323.5 5451.71 1321.67 5448.13 1321.34 5447.47 1319.71 5445.5 1317.39 5446.36 1314.11 5447.58 1315.16 5448.8 1314.98 5449.54L1313.24 5463.25C1313.07 5465 1314.34 5466.55 1316.09 5466.72 1317.82 5466.89 1319.37 5465.63 1319.55 5463.89L1321 5452.5 1321.32 5451.03C1321.33 5451.02 1320.47 5452.17 1320.9 5451.69 1321.14 5451.41 1318.59 5452.84 1319.41 5452.61 1320.27 5452.38 1316.16 5451.79 1316.8 5452.21 1317.38 5452.59 1315.71 5450.99 1315.85 5451.22L1315.61 5450.7 1317.13 5476.63 1318.77 5493.76C1319.53 5498.64 1319.72 5502.63 1323.07 5505.44M1436.74 5808.82C1437.38 5806.8 1436.26 5804.63 1434.24 5803.99 1432.39 5803.41 1430.4 5804.28 1429.59 5806.04 1427.53 5810.45 1420.47 5814.55 1411.59 5817.12 1403.35 5819.74 1395.84 5822.16 1388.76 5820.6 1384.07 5819.56 1380.45 5819.14 1377.04 5816.5 1373.13 5813.59 1368.79 5806.91 1363.89 5797.88 1350.75 5773.36 1339.36 5735.39 1329.43 5698.61 1320.61 5667.51 1313.36 5639.54 1307.7 5615.25 1302.24 5591.82 1298.34 5572.23 1296.13 5557.1 1295.87 5555.31 1294.21 5554.07 1292.42 5554.34 1290.7 5554.59 1289.47 5556.14 1289.63 5557.88 1291.06 5573.41 1294.23 5593.36 1298.96 5617.13 1303.86 5641.78 1310.38 5670.1 1318.46 5701.5 1328.5 5738.63 1339.87 5777 1353.95 5803.24 1358.94 5812.66 1363.39 5820.65 1369.93 5825.7 1376.14 5830.29 1382.45 5830.8 1386.53 5831.57 1397.3 5833.59 1406.76 5829.8 1414.76 5826.96 1424.85 5823.05 1434.02 5817.4 1436.74 5808.82M1425.9 5822.25C1427.09 5820.95 1427 5818.94 1425.71 5817.75 1424.66 5816.79 1423.09 5816.64 1421.88 5817.4 1416.65 5820.67 1406.42 5824.39 1394.98 5818.91 1386.89 5815.59 1377.64 5806.71 1368.79 5793.97 1359.57 5780.7 1350.89 5763.71 1343.52 5744.63 1334.18 5721.33 1327.77 5694.45 1323.86 5668.84 1320.03 5643.69 1318.72 5620.76 1320.02 5604.84 1320.17 5603.09 1318.87 5601.56 1317.12 5601.42 1315.43 5601.28 1313.94 5602.49 1313.71 5604.17 1311.52 5620.84 1312.14 5644.25 1315.29 5670.02 1318.5 5696.26 1324.26 5723.93 1333.26 5748.48 1340.84 5768.35 1349.77 5786.09 1359.57 5800.34 1369.05 5814.14 1379.16 5824.7 1390.29 5829.36 1399.01 5832.44 1406.85 5832.04 1412.98 5830.1 1418.89 5828.24 1423.26 5825.13 1425.9 5822.25M1415.07 5816.65C1416.73 5815.01 1416.75 5812.32 1415.11 5810.65 1413.55 5809.07 1411.02 5808.96 1409.33 5810.41 1402.51 5816.25 1395.01 5822.25 1386.46 5824.11 1382.26 5825.16 1378.35 5825.64 1374.2 5824.65 1366.51 5822.69 1356.66 5814.49 1346.94 5801.34 1329.64 5779.02 1316.25 5744.67 1306.64 5709.74 1297.09 5675.08 1291.68 5641.64 1291.03 5619.54 1290.98 5617.79 1289.51 5616.41 1287.76 5616.46 1286.06 5616.51 1284.7 5617.89 1284.68 5619.6 1284.48 5642.56 1289.21 5676.51 1298.13 5711.98 1307.13 5747.77 1319.81 5783.26 1337.88 5807.99 1348.78 5822.2 1360.12 5832.1 1371.89 5834.71 1378.08 5836.19 1383.89 5835.42 1388.8 5834.2 1400.36 5830.96 1408.49 5823.13 1415.07 5816.65M1414.36 5864.46C1417.02 5863.72 1418.57 5860.96 1417.84 5858.3 1417.1 5855.64 1414.35 5854.09 1411.69 5854.82 1411.63 5854.84 1411.58 5854.86 1411.52 5854.88 1389.71 5861.73 1316.07 5708.18 1339.34 5664.7 1340.19 5663.11 1339.59 5661.12 1337.99 5660.27 1336.43 5659.43 1334.48 5659.99 1333.6 5661.54 1326.93 5673.28 1327.32 5691.82 1330.79 5712.89 1336.2 5745.8 1349.26 5783.4 1364.82 5814.31 1372.39 5829.33 1380.33 5842.29 1388.54 5851.62 1396.37 5860.52 1405.18 5867 1414.36 5864.46M1444.05 5810.19C1442.7 5808 1439.83 5807.3 1437.63 5808.65 1435.52 5809.95 1434.79 5812.67 1435.96 5814.85L1436.85 5817.36 1436.94 5817.16C1434.13 5818.24 1420.95 5815.09 1409.13 5803.82 1387.32 5784.5 1372.57 5740.86 1377.96 5717.02 1378.46 5714.85 1377.09 5712.69 1374.93 5712.2 1372.83 5711.73 1370.74 5712.98 1370.16 5715.04 1366.29 5728.79 1368.43 5746.98 1374 5764.98 1379.6 5783.12 1388.57 5800.63 1400.84 5812.46 1412.02 5822.48 1423.61 5827.66 1433 5827.99 1437.53 5828.16 1442.25 5827.13 1444.93 5823.27 1447.64 5819.36 1446.57 5814.3 1444.05 5810.19M1453.51 5837.54C1454.84 5838.71 1456.86 5838.6 1458.04 5837.28 1459.18 5836 1459.11 5834.05 1457.89 5832.85 1454.4 5829.44 1443.36 5818.61 1431.97 5803.75 1420.25 5788.47 1409.21 5770.21 1407.2 5753.62 1406.95 5751.58 1405.1 5750.13 1403.06 5750.37 1401.02 5750.62 1399.57 5752.47 1399.82 5754.51 1402.3 5773.49 1414.27 5792.33 1426.5 5807.99L1443.45 5827.59ZM1910.09 5881.28C1910.71 5879.25 1909.56 5877.1 1907.53 5876.48 1905.69 5875.92 1903.72 5876.8 1902.92 5878.55 1894.6 5896.64 1878.52 5910.84 1854.41 5910.46 1840.83 5911.05 1829.45 5910.45 1816.89 5907.61 1810.11 5905.92 1802.02 5902.92 1793.81 5899.38 1780.09 5893.31 1770.05 5887.89 1761.63 5881.98L1748.47 5871.16 1743.97 5865.89C1735.35 5856.56 1722.26 5850.08 1711.72 5843.27 1704.27 5838.07 1699.2 5829.76 1687.38 5826.75 1675.36 5823.81 1665.87 5829.96 1658.72 5832.33 1642.44 5838.16 1619.02 5834.5 1594.23 5834.75 1576.52 5835.02 1562.33 5840.14 1550.95 5847.39 1539.75 5854.52 1530.75 5863.35 1520.57 5871.47L1511.46 5877C1499.48 5883.75 1490.71 5887.49 1477.09 5888.28 1452.82 5889.87 1434.87 5877.18 1423.29 5851.46 1416.69 5836.57 1410.94 5824.11 1408.84 5811.65L1406.91 5789.01 1405.66 5774.54C1406.18 5772.78 1406.13 5770.89 1405.54 5769.16 1405.52 5769.1 1404.56 5771.42 1405.75 5770.66 1407.71 5769.42 1408.29 5766.83 1407.05 5764.87 1406.5 5764 1405.64 5763.37 1404.66 5763.09 1400.88 5762.01 1396.08 5761.57 1391.64 5765.05 1390.19 5766.19 1389.13 5767.75 1388.61 5769.51 1386.13 5777.8 1388.7 5784.43 1389.1 5790.24 1389.65 5798.05 1389.94 5806.62 1391.27 5814.6 1393.8 5830.07 1400.3 5843.88 1406.82 5858.78 1413.47 5874.23 1422.73 5887.11 1434.82 5895.76 1446.88 5904.39 1461.92 5908.63 1478.12 5907.86 1495.11 5906.93 1508.03 5901.56 1521.09 5894.26 1524.63 5892.27 1528.84 5890.05 1532.84 5886.88 1554.53 5869.99 1567.28 5855.58 1594.39 5855.44 1617.07 5855.19 1642.35 5860.12 1665.45 5851.8L1683.3 5845.67C1685.17 5845.98 1687.11 5846.99 1690.04 5849.12L1702.47 5857.98C1713.41 5865.21 1725.7 5872.13 1731 5878.02 1731.71 5878.85 1732.59 5881.08 1735.6 5884.11L1751.95 5896.47C1761.85 5902.73 1773.15 5908.14 1787.71 5914 1796.44 5917.6 1805.25 5920.73 1813.49 5922.6 1827.3 5926.04 1840.39 5927.05 1854.47 5926.71 1870.54 5925.37 1883.25 5919.23 1892.3 5910.75 1901.22 5902.4 1906.87 5891.89 1910.09 5881.28M2061.55 5908.62C2060.44 5907.26 2058.44 5907.06 2057.08 5908.17 2055.96 5909.09 2055.61 5910.65 2056.21 5911.96 2059.01 5917.98 2065.64 5921.66 2072.59 5920.75 2079.7 5919.82 2086.82 5914.97 2092.16 5907.44 2103.77 5888.29 2105.17 5863.96 2113.68 5846.82 2120.38 5833.34 2132.32 5826.08 2143.79 5819.66 2148.6 5816.97 2152.68 5813.49 2156.18 5809.49 2152.68 5782.44 2170.42 5760.47 2177.88 5754.48 2178.91 5753.66 2179.86 5752.93 2180.75 5752.27 2181.81 5750.78 2182.71 5749.64 2183.48 5748.71 2191.28 5732.83 2201.48 5717.24 2205.85 5698.57L2214.39 5664.64C2217.16 5651.84 2221.01 5632.75 2211.37 5615.51 2205.59 5605.22 2196.04 5598.88 2186.49 5595.35 2177.04 5591.86 2167.27 5590.5 2158.04 5589.09 2144.64 5587.03 2129.16 5583.27 2114.32 5588.49 2103.31 5592.66 2096.71 5601.16 2092.89 5608.73 2089.19 5616.04 2087.04 5622.8 2083.91 5627.96L2073.05 5642.89 2063.92 5656.44C2063.3 5657.46 2062.85 5658.58 2062.59 5659.74L2058.25 5682.34C2057.86 5684.76 2059.5 5687.04 2061.92 5687.44 2063.57 5687.71 2065.22 5687.03 2066.21 5685.69 2071.21 5678.92 2075.94 5674.12 2080.26 5670.53 2081.18 5669.76 2081.96 5668.86 2082.59 5667.84L2090.68 5655.93 2102.29 5639.27C2107.19 5631.94 2109.87 5624.52 2112.78 5619.38 2115.47 5614.63 2117.64 5612.23 2121.96 5610.79 2127.78 5608.69 2141.13 5610.16 2154.59 5612.13 2163.73 5613.47 2172.09 5614.75 2178.54 5617.09 2184.65 5619.3 2188.68 5622.16 2191.34 5626.82 2195.88 5634.75 2194.63 5648.61 2192.32 5659.91L2184.82 5693.88C2180.61 5713.09 2163.97 5733.65 2156.35 5761.41 2151.63 5779.51 2144.72 5797.5 2134.48 5803.82 2122.8 5811.01 2107.14 5821 2098.59 5839.61 2088.82 5860.92 2087.87 5884.95 2079.7 5899.57 2074.35 5910.97 2066.29 5914.41 2061.55 5908.62M2056.27 5804.49C2054.52 5804.4 2053.03 5805.74 2052.94 5807.49 2052.87 5808.77 2053.58 5809.97 2054.74 5810.52 2059.1 5812.61 2064.23 5809.6 2067.46 5805.73 2070.74 5801.81 2073.14 5796.67 2074 5791.1 2074.52 5783.07 2069.88 5777.28 2065.01 5773.93 2056.88 5768.52 2047.77 5771.25 2042.19 5776.48 2038.71 5779.97 2038.91 5783.86 2039.3 5786.43L2041.25 5792.64C2042.9 5795.86 2045.55 5796.95 2047.2 5797.42L2052.19 5798.2 2053.2 5798.37C2053.27 5798.38 2052.04 5797.59 2052.52 5797.96 2052.15 5797.7 2050.66 5795.41 2050.79 5795.75 2051.27 5797.09 2049.51 5796.86 2050.31 5802.65 2050.91 5806.98 2054.91 5810.01 2059.25 5809.41 2063.58 5808.82 2066.61 5804.82 2066.01 5800.48 2065.93 5799.87 2065.77 5799.27 2065.55 5798.7 2063 5792.15 2058.01 5788.34 2056.64 5786.68 2053.91 5783.34 2049 5782.86 2045.66 5785.58 2042.41 5788.25 2041.86 5793.02 2044.42 5796.36L2050.71 5804.25 2064.79 5797.23C2064.48 5796.75 2065.48 5798.63 2065.38 5798.36L2065.56 5798.93 2065.04 5794.86C2064.64 5792.65 2064.04 5789.16 2060.17 5786.82 2057.67 5784.49 2054.53 5784.64 2052.69 5784.36L2051.45 5784.14C2051.33 5784.09 2052.92 5785.06 2052.41 5784.68 2051.85 5784.26 2054.55 5787.95 2054.13 5786.92L2053.31 5784.43 2053.26 5784.57 2052.95 5785.48C2053.15 5785.07 2051.57 5787.2 2052.01 5786.78L2057.58 5785.38C2059.75 5786.66 2061.27 5788.89 2061.28 5790.14 2061.59 5793.71 2060.82 5797.68 2059.45 5800.66 2058.14 5803.47 2056.64 5804.51 2056.27 5804.49M2055.71 5797.51C2058.96 5794.7 2059.31 5789.77 2056.49 5786.52 2053.68 5783.27 2048.75 5782.91 2045.5 5785.73 2043.88 5787.13 2042.91 5789.14 2042.82 5791.29 2042.79 5791.99 2042.88 5790.54 2042.88 5790.57 2042.61 5792.54 2042.91 5802.71 2052.15 5809.61 2057.39 5813.68 2063.25 5813.74 2067.52 5813.83 2074.18 5814 2081.88 5810.82 2084.14 5803.35 2086.74 5794.59 2081.63 5789.11 2078.62 5784.95 2074.07 5779.58 2068.29 5778.41 2063.39 5778.53 2058.55 5778.64 2053.9 5779.93 2050.11 5782.8 2044.86 5787.7 2044.8 5793.32 2045.46 5797.98 2046.11 5802.6 2047.82 5807.03 2051 5809.7 2052.4 5810.88 2054.48 5810.69 2055.66 5809.29 2056.51 5808.28 2056.68 5806.87 2056.09 5805.69 2055.31 5804.12 2054.9 5800.88 2055.35 5798.07L2056.69 5794.32 2062.82 5793.16 2065.42 5793.91 2068.52 5798.77 2068.94 5799.92C2068.95 5799.98 2069.22 5798.38 2069.04 5799.03 2068.88 5799.65 2069.63 5798.12 2069.57 5798.15L2067.65 5798.5 2061.18 5797.5C2058.93 5795.75 2058.41 5794.4 2058.25 5793.7L2058.18 5793.23 2058.13 5793.55 2057.97 5794.14 2057.69 5794.86 2057.28 5795.64C2057.51 5795.26 2054.62 5798.45 2055.71 5797.51M1593.83 5839.35C1595.05 5841.28 1597.61 5841.85 1599.54 5840.63 1601.34 5839.48 1601.98 5837.14 1601 5835.24 1597.05 5827.59 1593.59 5822.19 1591.96 5816.62 1590.43 5812.21 1589.81 5807.22 1590.2 5801.96 1590.72 5796.06 1593.23 5790.45 1594.74 5789.36 1596.16 5788.05 1604.02 5789.37 1604.22 5795.21 1604.28 5796.96 1605.75 5798.33 1607.5 5798.27 1609.02 5798.22 1610.29 5797.1 1610.53 5795.6 1612.32 5784.38 1599.34 5773.31 1588.44 5779.64 1581.42 5785.23 1579.82 5793.52 1579.44 5801.3 1579.02 5807.83 1579.84 5814.23 1581.89 5819.91 1584.98 5827.25 1589.46 5832.46 1593.83 5839.35M1609.11 5858.97C1609.84 5856.89 1608.74 5854.61 1606.66 5853.88 1604.89 5853.27 1602.92 5853.96 1601.94 5855.57L1602.08 5855.6C1601.6 5855.88 1605.37 5855.68 1604.5 5855.41 1603.79 5855.18 1605.85 5856.29 1605.71 5856.15 1605.69 5856.12 1603.45 5849.63 1602.57 5842.36 1599.55 5828.54 1600.1 5813.12 1603.39 5801.32 1606.49 5790.21 1611.47 5784.21 1617.11 5785.73 1618.8 5786.18 1620.54 5785.18 1621 5783.49 1621.42 5781.93 1620.6 5780.31 1619.11 5779.71 1614 5777.69 1608.25 5779.13 1604.12 5782.76 1591.26 5794.05 1586.74 5820.56 1590.22 5844.02 1591.86 5850.64 1593.62 5856.05 1596.32 5860 1597.66 5861.95 1599.5 5864.35 1603.11 5864.23 1606.84 5864.12 1608.36 5861.13 1609.11 5858.97M1645.21 5868.98C1643.5 5869.37 1642.43 5871.07 1642.82 5872.78 1643.16 5874.27 1644.51 5875.31 1646.04 5875.25 1658.86 5874.74 1680.21 5860.86 1695.23 5847.89 1701.91 5842.1 1707.16 5834.79 1708.23 5824.8 1708.76 5819.62 1709.94 5812.31 1707.67 5803.78 1703.89 5791 1694.32 5779.95 1685.23 5770.5 1672.69 5758.53 1659.06 5752.05 1647.23 5750.64 1635.92 5749.29 1625.41 5753.47 1622.92 5761.72 1622.41 5763.4 1623.36 5765.17 1625.04 5765.68 1626.47 5766.11 1628.02 5765.48 1628.74 5764.16 1630.86 5760.27 1636.92 5758.75 1645.29 5760.92 1654.27 5763.25 1664.98 5769.64 1674.47 5780.41 1683.1 5789.41 1691.13 5799.6 1693.52 5807.74 1695.29 5813.24 1694.89 5818.32 1694.73 5823.89 1694.59 5830.61 1692.51 5834.42 1687.45 5839.66 1675.01 5852.57 1653.88 5867.01 1645.21 5868.98M1601.06 5862.71C1602.48 5863.74 1604.46 5863.42 1605.49 5862 1606.49 5860.61 1606.21 5858.69 1604.88 5857.64 1604.53 5857.37 1605.97 5860.34 1605.86 5859.45 1605.77 5858.63 1605.26 5861.57 1605.47 5861.24 1606.32 5859.94 1613.88 5858.46 1615.84 5857.84 1617.6 5857.29 1618.57 5855.43 1618.03 5853.68 1617.48 5851.93 1615.62 5850.95 1613.86 5851.5 1613.77 5851.53 1613.67 5851.56 1613.57 5851.6L1606.61 5853.92 1602.13 5855.94 1600.11 5857.77C1599.35 5858.97 1599.85 5861.84 1601.06 5862.71M1609.15 5856.6C1606.93 5857.54 1605.87 5860.1 1606.81 5862.33 1607.74 5864.55 1610.3 5865.61 1612.54 5864.67 1612.67 5864.62 1612.8 5864.55 1612.92 5864.49 1614.84 5863.46 1619.62 5863.57 1624.11 5863.95L1630.49 5863.98C1632.69 5863.56 1635.29 5859.96 1634.45 5857.59 1633.87 5855.94 1632.05 5855.07 1630.4 5855.65 1628.93 5856.17 1628.05 5857.69 1628.34 5859.23L1628.39 5858.61C1628.19 5859.36 1630.08 5857.01 1629.77 5857.11 1629.33 5857.24 1618.25 5852.79 1609.15 5856.6M1589.28 5789.54C1588.13 5788.22 1586.13 5788.07 1584.8 5789.21 1583.95 5789.95 1583.55 5791.09 1583.75 5792.2 1583.95 5793.27 1586.81 5795.15 1588.12 5794.67 1591.47 5793.44 1590.69 5792.18 1591.43 5790.66 1594.34 5784.67 1598.39 5773.17 1601.11 5760.34 1603.85 5747.42 1605.63 5733.89 1599.96 5724.17 1598.64 5721.89 1595.7 5721.11 1593.42 5722.44 1591.14 5723.77 1590.36 5726.7 1591.69 5728.99 1591.73 5729.06 1591.78 5729.13 1591.82 5729.2 1595.88 5735.38 1594.89 5751.11 1591.75 5765.32L1586.74 5783.5 1584.83 5788.77 1584.36 5789.82 1584.66 5789.43C1584.45 5789.66 1587.35 5788.32 1586.31 5788.53 1585.18 5788.75 1589.8 5790.14 1589.28 5789.54M1607.38 5787.08C1608.73 5785.95 1608.9 5783.95 1607.77 5782.61 1607.13 5781.85 1606.16 5781.43 1605.17 5781.48 1604.7 5781.51 1607.56 5782.4 1606.95 5781.99 1606.35 5781.59 1608.24 5783.84 1608.08 5783.41 1607.8 5782.68 1608.25 5784.42 1608.26 5784.39 1608.46 5781.64 1614.23 5765.5 1620.47 5754.42 1622.52 5750.12 1624.01 5747.41 1625.8 5745.73 1629.66 5741.82 1637.17 5740.01 1643.73 5742.5 1650.41 5745.04 1656.52 5752.25 1656.82 5765.7 1656.86 5767.45 1658.32 5768.84 1660.07 5768.8 1661.75 5768.76 1663.12 5767.41 1663.17 5765.73 1663.65 5750.28 1656.77 5739.11 1647.23 5734.43 1637.82 5729.82 1626.25 5730.81 1618.37 5737.27 1614.52 5740.68 1612.34 5744.77 1610.23 5748.97 1607 5756.69 1604.31 5765.2 1602.61 5772.48L1601.09 5781.61 1601.48 5785.28C1601.75 5786 1602.22 5787.06 1603.66 5787.67 1605.18 5788.31 1606.8 5787.57 1607.38 5787.08M1639.1 5767.41C1637.61 5766.48 1635.66 5766.94 1634.73 5768.43 1633.82 5769.9 1634.25 5771.84 1635.71 5772.77 1638.58 5774.62 1639.34 5773.28 1640.74 5773.03L1647.31 5772.34C1648.95 5772.49 1649.12 5772.47 1649.27 5773.53 1649.51 5775.28 1651.13 5776.51 1652.88 5776.27 1654.64 5776.02 1655.86 5774.4 1655.62 5772.65 1654.84 5767.16 1648.8 5765.68 1644.79 5766L1639.61 5766.77 1638.09 5767.01 1637.97 5767.02C1637.85 5767.02 1639.77 5767.82 1639.1 5767.41" fill="#f283b8" class="mkkdsak4732"></path>
<path transform="matrix(.1,0,0,-.1,0,803.25)" d="M2288.65 5482.72C2290.38 5481.52 2290.8 5479.16 2289.6 5477.43 2288.41 5475.73 2286.08 5475.29 2284.36 5476.46 2280.22 5479.25 2276.66 5482.82 2273.81 5486.79L2268.36 5493.58C2266.74 5495.91 2264.61 5497.98 2265.39 5502.57 2266.96 5507.32 2270.78 5508.28 2273.04 5508.34 2279.49 5508.5 2286.28 5505.02 2292.69 5499.35 2302.13 5490.28 2306.47 5476.38 2309.98 5463.55 2314.91 5445.32 2314.16 5426.89 2312.91 5411.42 2311.71 5396.63 2310.47 5384.83 2312.11 5381.73 2313 5380.04 2312.36 5377.95 2310.67 5377.06 2309.13 5376.25 2307.23 5376.7 2306.23 5378.12 2301.23 5385.19 2303.38 5397.31 2303.86 5411.93 2304.37 5427.09 2304.25 5444.42 2299.23 5460.39 2295.47 5472.48 2290.43 5484.61 2284.39 5489.94 2281.32 5492.87 2277.91 5494.93 2275.27 5495.98L2272.82 5496.68C2272.78 5496.68 2274.14 5497.01 2273.56 5496.82 2273.23 5496.71 2275.24 5497.82 2274.78 5497.47 2274.3 5497.11 2276.37 5499.61 2276.05 5498.99 2275.13 5497.64 2276.25 5499.9 2276.2 5499.59L2276.3 5499.45 2280.35 5490.98C2282.46 5487.98 2285.36 5485.01 2288.65 5482.72M2301.19 5427.54C2302.24 5429.41 2304.61 5430.07 2306.48 5429.02 2307.98 5428.17 2308.75 5426.43 2308.36 5424.75L2308.11 5423.68C2307.64 5421.41 2305.41 5419.96 2303.14 5420.44 2300.87 5420.91 2299.42 5423.14 2299.89 5425.41 2300.37 5427.68 2302.59 5429.13 2304.86 5428.65 2305.41 5428.54 2305.93 5428.31 2306.39 5427.99 2306.99 5427.58 2304.23 5428.76 2304.73 5428.68 2305.61 5428.52 2302.34 5428.39 2302.79 5428.54 2303.5 5428.77 2301.3 5427.65 2301.52 5427.84 2302.06 5428.3 2301.09 5427.35 2301.19 5427.54M2308.04 5423.39C2307.57 5421.76 2306.19 5420.56 2304.51 5420.33 2300.13 5419.73 2300.07 5422.46 2299.76 5423.24 2298.12 5427.46 2299.47 5430.66 2300.47 5436.36L2305.41 5457.81C2314.58 5484.74 2330.81 5511.66 2347.64 5533.44 2355.84 5544.04 2363.98 5553.11 2371.51 5559.84 2378.69 5566.25 2384.97 5570.86 2391.16 5570.81 2393.18 5570.8 2394.8 5569.15 2394.79 5567.13 2394.78 5565.27 2393.38 5563.71 2391.53 5563.51 2386.16 5562.92 2370.65 5548.2 2355.71 5527.43 2340.18 5505.82 2325.27 5479.19 2317.7 5454.24L2310.66 5432.84ZM2343.32 5398.58C2344.39 5400.41 2346.73 5401.04 2348.57 5399.97 2350.4 5398.91 2351.02 5396.56 2349.96 5394.73L2346.23 5389.73C2344.93 5388.55 2342.25 5387.26 2339.84 5388.68 2335.76 5391.09 2336.69 5394.55 2336.83 5398.23 2337.1 5405.15 2339.01 5415.07 2342.33 5426.94 2347.54 5445.57 2355.96 5467.72 2367.98 5488.46 2380.01 5509.23 2395.45 5528.2 2414.92 5538.8 2416.71 5539.78 2418.95 5539.12 2419.93 5537.33 2420.9 5535.54 2420.24 5533.3 2418.46 5532.32 2387.58 5515.46 2366.21 5474.67 2354.23 5439.81 2348.51 5423.14 2345.21 5408.58 2344.53 5399.69L2344.5 5395.08 2344.54 5394.5 2343.83 5395.19C2344.54 5394.72 2340.92 5395.38 2341.47 5395.55 2342.14 5395.75 2341.03 5395.3 2341.43 5395.77ZM2246.75 5467.7C2244.85 5467.8 2243.39 5469.42 2243.48 5471.33 2243.57 5472.88 2244.68 5474.19 2246.2 5474.52L2257.84 5475.2C2264 5475.06 2271.57 5474.23 2279.32 5471.68 2296.21 5465.77 2308.78 5450.99 2317.14 5435.51 2325.37 5420.27 2329.76 5404.86 2328.72 5394.14 2328.5 5391.82 2326.44 5390.13 2324.13 5390.36 2321.82 5390.58 2320.13 5392.63 2320.35 5394.95 2321.98 5411.94 2304.59 5453.91 2276.61 5463.68 2269.9 5466.14 2263.1 5467.15 2257.49 5467.53" fill="#a788be" class="mkkdsak4732"></path>
<path transform="matrix(.1,0,0,-.1,0,803.25)" d="M2382.18 6199.73C2383.06 6198.07 2382.43 6196.03 2380.77 6195.15 2379.15 6194.29 2377.14 6194.89 2376.24 6196.49 2373.56 6201.26 2375.04 6206.44 2375.72 6210.21L2375.39 6213.75 2376.59 6213.39C2374.13 6212.89 2371.72 6214.48 2371.22 6216.94 2370.72 6219.41 2372.32 6221.81 2374.78 6222.31 2375.08 6222.37 2375.38 6222.4 2375.69 6222.4 2379.44 6222.4 2382.3 6219.14 2382.96 6216.46 2383.59 6213.85 2383.3 6211.23 2382.59 6208.66 2381.85 6205.03 2381.26 6201.48 2382.18 6199.73M2379.66 6220.92C2379.91 6220.51 2380.13 6220.07 2380.29 6219.62L2380.77 6216.85C2380.83 6213.95 2379.34 6211.23 2376.85 6209.73 2370.24 6205.75 2358.14 6189.09 2344.26 6170.9L2311.27 6126.24C2295.29 6104.45 2282.62 6084.52 2273.42 6069.09L2263.13 6051.21 2258.88 6043.61C2257.71 6042 2255.45 6041.65 2253.84 6042.82 2253.8 6042.85 2253.77 6042.88 2253.73 6042.91 2250.96 6045.09 2252.21 6046.13 2252.29 6046.9 2252.57 6049.67 2253.91 6053.07 2255.98 6058.03 2259.34 6066.07 2264.6 6076.97 2271.64 6089.92 2278.94 6103.36 2287.98 6118.64 2298.69 6134.82L2331.82 6180.32C2345.36 6198.38 2355.8 6215.63 2368.34 6223.53 2370.8 6225.08 2373.89 6225.19 2376.46 6223.83 2377.45 6223.31 2378.31 6223.11 2379.66 6220.92M2367.67 6196.16C2367.39 6193.67 2365.15 6191.86 2362.66 6192.13 2360.41 6192.38 2358.69 6194.23 2358.61 6196.49 2358.48 6200.04 2361.12 6204.89 2365.28 6205.49 2371.11 6206.34 2375.96 6203.02 2381.96 6199.13L2403.29 6183.45 2441.76 6153.67C2459.23 6139.22 2473.5 6129.21 2482.95 6120.25 2487.43 6116 2490.95 6111.92 2492.52 6107.25 2494.07 6102.61 2492.91 6097.5 2489.93 6093.72 2488.58 6092 2486.09 6091.7 2484.37 6093.06 2482.84 6094.27 2482.41 6096.42 2483.38 6098.13 2484.7 6100.45 2484.6 6101.61 2483.64 6103.4 2481.92 6106.58 2476.28 6111.2 2467.72 6117.13L2432.7 6141.61 2394.78 6172.99C2384.78 6181.68 2376.34 6188.96 2370.39 6192.89L2365.7 6195.37C2365.49 6195.38 2367.92 6196.64 2367.39 6196.1 2366.92 6195.62 2367.73 6196.74 2367.67 6196.16M2264.2 6049.79C2262.35 6049.68 2260.77 6051.09 2260.66 6052.95 2260.57 6054.45 2261.49 6055.83 2262.92 6056.32 2265.19 6057.09 2267.64 6055.7 2268.82 6054.24 2272.86 6049.25 2274.02 6040.07 2275.48 6028.34 2277.01 6016.12 2277.98 6001.85 2278.64 5987.87L2279.13 5947.21 2280.29 5933.18 2281 5928.8C2281 5928.78 2280.14 5930.05 2280.55 5929.53L2279.64 5930.38C2280.46 5929.82 2275.71 5931.08 2276.64 5931.17 2277.41 5931.25 2274.93 5930.55 2275.16 5930.7L2276.96 5933.65 2281.76 5944.95C2282.51 5946.99 2284.78 5948.04 2286.82 5947.28 2288.77 5946.57 2289.82 5944.47 2289.24 5942.48 2286.06 5931.53 2284.91 5926.18 2281.32 5922.46 2280.29 5921.4 2278.16 5920.1 2275.73 5920.41 2272.2 5920.84 2270.77 5923.19 2269.84 5924.8L2267.81 5929.65C2266.73 5935.19 2266.73 5940.75 2266.78 5947.12L2267.27 5987.54C2267.31 6003.39 2266.9 6019.51 2265.83 6032.28L2263.86 6046.92 2262.79 6050.18ZM2477 6095.13C2477.8 6096.69 2479.71 6097.31 2481.27 6096.51 2481.98 6096.15 2482.54 6095.52 2482.81 6094.77 2483.86 6091.9 2483.85 6087.23 2484.24 6079.48L2485.35 6048.36 2482.69 5969.09C2481.48 5942.88 2480.05 5919.77 2477.58 5905.42 2477.18 5903.05 2474.93 5901.46 2472.56 5901.87 2470.28 5902.26 2468.7 5904.39 2468.99 5906.69 2470.69 5920.33 2471.59 5943.36 2472.2 5969.45L2473.06 6048.21 2474.94 6079.59C2475.52 6087.34 2475.38 6091.95 2477 6095.13M2269.69 5912.68C2271.1 5914.22 2273.49 5914.34 2275.04 5912.93 2276.14 5911.93 2276.55 5910.39 2276.09 5908.97 2275.87 5908.26 2275.52 5912.11 2275.88 5911.42 2276.19 5910.83 2274.9 5912.51 2275.06 5912.39 2275.65 5911.97 2292.1 5909.36 2314.75 5910.44 2331.17 5911.14 2350.64 5914.58 2370.06 5917.8L2421.35 5927.32C2443.98 5930.89 2460.27 5932.07 2471.83 5932.83 2482.39 5933.52 2488.5 5934.06 2491.23 5935.55 2493.38 5936.72 2496.08 5935.93 2497.26 5933.77 2498.26 5931.93 2497.84 5929.63 2496.25 5928.27 2491.25 5923.99 2483.77 5922.74 2473.13 5921.09 2461.63 5919.3 2445.91 5917.21 2424.2 5912.85L2372.1 5904.42C2352.57 5901.84 2332.61 5898.93 2315.04 5898.88 2301.38 5898.89 2290.18 5899.86 2282.04 5901.44L2272.76 5904.19 2269.51 5906.69C2268.47 5908.09 2268.39 5911.25 2269.69 5912.68M2393.74 6193.24C2392.13 6192.11 2389.91 6192.49 2388.77 6194.11 2387.77 6195.54 2387.95 6197.48 2389.2 6198.71 2394.67 6204.05 2401.39 6208.99 2410.82 6215.06L2464.18 6246.29 2526.25 6278.82 2562.92 6298.26 2571.48 6301.89 2573.23 6302.77 2573.2 6302.63C2574.32 6304.17 2576.46 6304.52 2578 6303.4 2578.21 6303.25 2578.4 6303.09 2578.57 6302.89 2580.71 6300.47 2579.6 6296.79 2578 6294.34 2576.38 6291.84 2573.98 6289.5 2570.98 6286.99L2532.29 6266.87 2470.38 6235 2416.24 6205.9C2406.31 6200.87 2399.46 6197.26 2393.74 6193.24M2582.33 6308.71C2582.34 6310.73 2583.97 6312.35 2585.98 6312.34 2587.86 6312.33 2589.41 6310.91 2589.59 6309.04 2589.67 6308.23 2600.83 6289.97 2612.53 6272.77L2628.84 6249.4 2634.45 6241.84 2636.05 6239.86 2636.32 6239.56 2636.08 6239.76C2636.28 6239.61 2633.29 6240.72 2634.45 6240.48 2636.88 6239.97 2638.45 6237.59 2637.94 6235.16 2637.43 6232.73 2635.05 6231.16 2632.62 6231.67 2632.18 6231.76 2631.77 6231.91 2631.38 6232.13 2629.11 6233.37 2629.68 6233.6 2629.21 6234.19L2603.61 6271.52 2589.16 6294.35C2585.39 6300.64 2582.31 6304.11 2582.33 6308.71M2632.79 6225.94C2634.06 6224.7 2634.09 6222.67 2632.85 6221.4 2632.13 6220.66 2631.1 6220.31 2630.08 6220.46L2630.84 6220.48C2628.1 6219.68 2612.82 6207.55 2594.29 6191.32 2573.48 6174.83 2550.01 6154.78 2529.67 6136.23L2503.86 6111.58C2497.21 6104.77 2492.46 6099.3 2490.94 6096.48 2490.01 6094.78 2487.88 6094.15 2486.17 6095.07 2484.6 6095.93 2483.92 6097.83 2484.6 6099.49 2486.52 6104.21 2491.29 6109.93 2497.86 6117.22 2519.45 6141.18 2555.79 6174.38 2586.54 6200.34L2614.9 6220.52 2624.57 6225.84C2627.2 6226.96 2629.87 6228.79 2632.79 6225.94M2608.94 6171.83C2608.21 6170.21 2606.32 6169.5 2604.7 6170.23 2603.09 6170.96 2602.37 6172.85 2603.1 6174.47 2604.88 6178.41 2610.47 6185.05 2616.23 6190.93 2617.61 6193.02 2619.11 6195.05 2621.47 6196.55 2622.73 6197.36 2624.76 6198.21 2627.25 6197.59 2629.79 6196.95 2631.66 6194.9 2632.64 6192.88 2632.84 6192.48 2632.98 6192.05 2633.09 6191.61 2634.58 6185.34 2633.34 6178.23 2632.11 6169.55 2630.83 6160.56 2629.2 6150.33 2628.42 6139.61 2627.39 6124.54 2628.49 6108.05 2628.76 6092.18 2629.03 6065.65 2628.38 6042.79 2627.3 6024.66 2626.28 6007.6 2625.06 5995.68 2623.57 5989.11 2622.75 5985.49 2619.15 5983.23 2615.54 5984.05 2611.93 5984.87 2609.66 5988.46 2610.48 5992.07 2611.59 5996.9 2612.91 6008.75 2613.91 6025.46 2614.98 6043.25 2615.63 6065.82 2615.36 6092 2615.32 6107.53 2614.38 6124.38 2615.71 6140.59 2617.48 6163.16 2622.32 6183.23 2621.09 6188.86 2620.99 6189.3 2620.94 6189.75 2620.94 6190.21V6190.38L2621.23 6189.64C2620.86 6190.3 2623.74 6187.84 2623.09 6188.05L2623.8 6187.93 2620.4 6186.1C2615.44 6180.97 2609.67 6173.44 2608.94 6171.83M2612.62 5998.42C2614.74 5997.81 2615.98 5995.6 2615.37 5993.47 2614.82 5991.56 2612.95 5990.34 2610.98 5990.61 2610.21 5990.71 2600.1 5984.98 2588.02 5975.41 2575.2 5965.24 2559.73 5952.26 2542.88 5939.88 2522.4 5925.34 2502.32 5913.29 2486.08 5903.63 2470.77 5894.52 2459.23 5887.07 2458.4 5885.88 2456.61 5883.35 2453.11 5882.74 2450.57 5884.52 2448.07 5886.29 2447.44 5889.73 2449.16 5892.26 2451.6 5895.86 2455.3 5898.05 2460.37 5901.32L2492.75 5921.02C2506.16 5929.2 2521.08 5938.63 2536.04 5949.32 2552.95 5961 2568.69 5973.43 2582.06 5983.22L2599.25 5994.77C2604.04 5997.47 2608.14 5999.7 2612.62 5998.42M2377.42 6177.51C2377.9 6179.57 2379.97 6180.85 2382.03 6180.36 2384.09 6179.88 2385.36 6177.82 2384.89 6175.77 2382.87 6167.06 2384.45 6145.25 2384.01 6125.06 2383.96 6122.92 2382.18 6121.22 2380.04 6121.27 2377.89 6121.31 2376.2 6123.09 2376.24 6125.23 2376.7 6144.99 2374.74 6166.13 2377.42 6177.51M2377.51 6039.09C2377.51 6037.24 2376.01 6035.73 2374.16 6035.73 2372.3 6035.73 2370.8 6037.24 2370.8 6039.09 2370.8 6040.94 2372.3 6042.45 2374.16 6042.45 2376.01 6042.45 2377.51 6040.94 2377.51 6039.09M2282.75 5960.1C2283.56 5962.16 2285.89 5963.17 2287.95 5962.36 2290.01 5961.55 2291.02 5959.22 2290.21 5957.16L2290.19 5957.4C2290.19 5956.93 2288.74 5960.09 2289.35 5959.44 2289.91 5958.84 2287.55 5960.36 2287.86 5960.3 2288.31 5960.21 2305.96 5969.09 2312.8 5974.1 2314.48 5975.32 2316.83 5974.96 2318.05 5973.29 2319.26 5971.63 2318.93 5969.31 2317.29 5968.07 2312.95 5964.77 2305.5 5959.99 2298.53 5956.36 2295.15 5954.59 2292.15 5953.16 2289.3 5952.6 2287.87 5952.32 2285.93 5951.88 2283.87 5953.69 2281.69 5955.59 2282.11 5958.47 2282.75 5960.1M2383.99 6003.11C2382.05 6002.67 2380.11 6003.89 2379.68 6005.84 2379.3 6007.54 2380.18 6009.27 2381.77 6009.95L2383.81 6011.85 2392.22 6021.91C2394.07 6023.84 2397.12 6023.89 2399.04 6022.05 2400.96 6020.2 2401.02 6017.15 2399.18 6015.23 2399.11 6015.16 2399.05 6015.1 2398.98 6015.04 2389.97 6006.68 2388.45 6004.11 2383.99 6003.11M2411.04 6031.49C2412.33 6029.92 2412.11 6027.6 2410.55 6026.3 2410.22 6026.03 2409.84 6025.82 2409.45 6025.68L2409.9 6025.88C2408.1 6024.93 2405.87 6025.62 2404.92 6027.43 2403.97 6029.23 2404.66 6031.46 2406.46 6032.41 2408.27 6033.36 2410.5 6032.67 2411.45 6030.86ZM2405.79 6026.26C2404.27 6027.52 2403.97 6029.75 2405.13 6031.36 2407.16 6034.21 2407.52 6032.93 2407.94 6033L2415.9 6034.05C2418.34 6035.05 2421.12 6033.88 2422.12 6031.45 2423.12 6029.02 2421.96 6026.23 2419.52 6025.23 2419.2 6025.1 2418.86 6025 2418.52 6024.94L2411.67 6024.86 2408.86 6025.18C2408.09 6025.29 2408.46 6024.06 2405.79 6026.26M2444.52 6042.57C2444.52 6040.49 2442.83 6038.8 2440.75 6038.8 2438.66 6038.8 2436.98 6040.49 2436.98 6042.57 2436.98 6044.66 2438.66 6046.34 2440.75 6046.34 2442.83 6046.34 2444.52 6044.66 2444.52 6042.57M2431.78 6027.11C2433.95 6027.63 2436.14 6026.29 2436.66 6024.12 2437.18 6021.95 2435.85 6019.76 2433.68 6019.24 2433.56 6019.21 2433.44 6019.19 2433.32 6019.17 2433.06 6019.1 2435.1 6020.85 2434.53 6020.14 2434.25 6019.79 2435.33 6022.04 2435.2 6021.51 2434.95 6020.49 2434.7 6024.36 2434.94 6023.89L2434.49 6024.52 2439.07 6022.63 2441.51 6022.01 2441.24 6021.98 2440.34 6021.69C2440.68 6021.86 2438.87 6020.23 2439.22 6020.72 2439.76 6021.47 2438.8 6017.68 2438.68 6018.32 2438.57 6018.9 2439.28 6017.02 2439.14 6017.22 2438.12 6018.68 2438.47 6020.68 2439.93 6021.7 2441.15 6022.56 2442.81 6022.46 2443.92 6021.47 2444.36 6021.07 2445.54 6020.07 2445.05 6018.04 2444.18 6014.41 2441.95 6015.32 2441.15 6015.3 2438.52 6015.26 2435.46 6016.11 2432.64 6017.14 2431.26 6017.65 2430.04 6017.86 2428.58 6019.55 2427.7 6020.57 2427.16 6023.63 2428.47 6025.22 2429.64 6026.64 2430.78 6026.86 2431.78 6027.11M2520.55 6021.11C2519.96 6023.24 2521.21 6025.45 2523.34 6026.04 2525.39 6026.61 2527.52 6025.47 2528.2 6023.46 2528.29 6023.22 2531.97 6020.36 2537.99 6018.71 2544.35 6016.98 2552.27 6016 2559.86 6016.15 2562.36 6016.2 2564.44 6014.21 2564.49 6011.7 2564.54 6009.19 2562.55 6007.11 2560.04 6007.07 2551.45 6007.08 2542.86 6008.32 2535.63 6010.5 2528.64 6012.61 2522.22 6015.06 2520.55 6021.11M2611.44 6014.48C2613.3 6015.66 2615.76 6015.11 2616.94 6013.25 2617.83 6011.85 2617.76 6010.05 2616.77 6008.72 2616.41 6008.24 2617.48 6011.45 2617.46 6010.7 2617.44 6010.07 2617 6012.58 2617.16 6012.23 2617.41 6011.67 2616.66 6012.97 2616.69 6012.95L2619.7 6011.13C2621.9 6009.96 2622.75 6007.23 2621.58 6005.02 2620.41 6002.81 2617.68 6001.97 2615.48 6003.14 2615.36 6003.2 2615.24 6003.27 2615.13 6003.34L2610.78 6006.89 2609.34 6009.94C2609.13 6011.54 2610.2 6013.7 2611.44 6014.48M2331.88 6081.73C2332.76 6083.75 2335.12 6084.68 2337.14 6083.79 2339.15 6082.92 2340.08 6080.58 2339.22 6078.56 2331.21 6059.73 2330.49 6018.91 2334.42 6011.02 2335.47 6008.91 2334.61 6006.35 2332.5 6005.3 2330.39 6004.25 2327.83 6005.11 2326.78 6007.22 2323.45 6014.23 2323.59 6026.6 2324.39 6041.09 2325.21 6055.84 2327.25 6071.13 2331.88 6081.73M2317.68 6087.29C2315.59 6087.21 2313.84 6088.84 2313.76 6090.93 2313.69 6092.9 2315.14 6094.59 2317.09 6094.83 2326.58 6095.97 2344.56 6094.68 2361.82 6095.79 2369.82 6096.29 2377.23 6097.92 2384.21 6099.23 2387.93 6099.92 2391.56 6100.95 2395.58 6101.04 2397.86 6101.17 2401.21 6104.8 2408.19 6102.45 2412.2 6100.91 2413.02 6097.74 2413.39 6095.82 2414.41 6090.41 2413.15 6084.89 2412.65 6080.4 2408.89 6060.27 2400.19 6037.29 2404.09 6020.34 2404.52 6018.48 2403.36 6016.64 2401.51 6016.21 2399.8 6015.82 2398.06 6016.78 2397.48 6018.44 2390.69 6038.07 2398.4 6063.36 2399.81 6081.62L2401.13 6091.27 2401.17 6093.84 2401.35 6093.37 2402 6092.37C2401.65 6092.78 2404.16 6090.89 2403.52 6091.2 2402.77 6091.61 2404.11 6091.06 2403.97 6091.06 2403.09 6091.08 2399.7 6090.05 2395.37 6090.32L2385.91 6089.1C2379.07 6088.1 2371.13 6086.62 2362.27 6086.35 2344.25 6085.84 2325.86 6087.59 2317.68 6087.29M2333.79 6008.71C2333.02 6010.82 2334.09 6013.14 2336.19 6013.92 2338.16 6014.64 2340.36 6013.75 2341.25 6011.86 2341.59 6011.15 2340.16 6012.96 2340.28 6012.91 2345.48 6010.6 2386.3 6021.84 2404.86 6031.57 2407.3 6032.85 2410.31 6031.91 2411.59 6029.47 2412.88 6027.03 2411.93 6024.01 2409.49 6022.73 2409.45 6022.71 2409.4 6022.69 2409.36 6022.66 2398.73 6017.48 2382.64 6012.13 2367.43 6008.29 2359.98 6006.42 2353.06 6005.02 2347.34 6004.49L2339.94 6004.51C2337.75 6004.85 2334.92 6005.65 2333.79 6008.71M2507.88 6211.47C2507.82 6213.39 2509.33 6214.99 2511.25 6215.05 2512.64 6215.09 2513.93 6214.3 2514.51 6213.03L2514.21 6213.5 2513.55 6214.13 2512.78 6214.54C2513.14 6214.4 2510.51 6214.72 2511.22 6214.77 2513.21 6214.93 2514.95 6213.43 2515.11 6211.44 2515.26 6209.45 2513.77 6207.71 2511.77 6207.55 2509.78 6207.4 2508.04 6208.89 2507.89 6210.89 2507.86 6211.21 2507.88 6211.54 2507.94 6211.86 2508.06 6212.45 2507.88 6211.31 2507.88 6211.31ZM2511.78 6207.48C2510.16 6207.38 2508.66 6208.35 2508.09 6209.88L2507.43 6214.54 2506.57 6222.62 2505.21 6264.68 2505.18 6325.67 2505.1 6396.07 2506.18 6425.66 2506.19 6429.3 2506.15 6430.22C2506.14 6430.3 2506.66 6428.88 2506.41 6429.41 2506.29 6429.68 2507.52 6428 2507.13 6428.39 2506.75 6428.77 2509.27 6427.27 2508.66 6427.45 2508.11 6427.63 2510.69 6427.38 2510.23 6427.32 2509.43 6427.21 2512.12 6428.17 2511.82 6427.95 2511.36 6427.61 2512.39 6428.53 2512.37 6428.5L2511.43 6425.76C2510.97 6424.07 2509.23 6423.07 2507.54 6423.53 2506.02 6423.94 2505.03 6425.41 2505.22 6426.97L2505.78 6430.92 2506.07 6432.1C2506.21 6432.54 2506.19 6433.6 2508.14 6434.59 2510.1 6435.58 2512.11 6434.57 2512.88 6433.85 2515.21 6431.68 2514.92 6430.01 2515.3 6427.84 2516.56 6420.77 2517.07 6409.28 2517.6 6396.38L2516.59 6325.47 2515.73 6264.74 2516.16 6223.3 2515.9 6214.71 2515.59 6211.68 2515.26 6210.29C2515.06 6209.73 2516.19 6207.75 2511.78 6207.48M2546.8 6457.06C2544.81 6457.11 2543.23 6458.76 2543.28 6460.75 2543.32 6462.54 2544.66 6464.02 2546.43 6464.24 2551.14 6464.84 2553.47 6460.16 2554.69 6455.94 2556.65 6449.16 2557.49 6439.23 2558.09 6426.66L2559.13 6380.76 2559.55 6267.27 2560.64 6230.37 2561.39 6221.6 2561.53 6220.89 2561.41 6221.17C2561.54 6220.93 2559.63 6222.93 2560.36 6222.4 2560.96 6221.95 2556.68 6223.03 2557.69 6223.13 2559.15 6223.27 2554.86 6221.44 2555.19 6221.83L2554.82 6221.27C2555.71 6223.28 2558.06 6224.18 2560.07 6223.29 2561.95 6222.45 2562.88 6220.32 2562.21 6218.37L2560.82 6216.17C2559.54 6215.03 2556.18 6215.27 2555.1 6216.28 2552.12 6219.09 2553.11 6220.68 2552.75 6223.47L2551.13 6247.16 2549.55 6307.32 2548.83 6380.68C2549.09 6403.58 2549.3 6423.35 2548.61 6437.97L2546.96 6453.97 2545.86 6457.3ZM2503.89 6430.86C2502.33 6430.03 2500.4 6430.63 2499.57 6432.19 2499.32 6432.67 2499.2 6433.21 2499.21 6433.75 2499.26 6435.9 2501.04 6436.68 2501.66 6436.85L2509.04 6437.72C2511 6438.18 2512.96 6436.95 2513.41 6435 2513.86 6433.04 2512.64 6431.08 2510.68 6430.63 2510.61 6430.61 2510.55 6430.6 2510.48 6430.59L2503.91 6430.23 2502.23 6430.48 2501.98 6430.53 2502.3 6430.5C2502.04 6430.51 2504.69 6431.28 2503.89 6430.86M2511.75 6514.59C2511.18 6512.72 2509.2 6511.67 2507.32 6512.25 2505.46 6512.82 2504.41 6514.8 2504.98 6516.67 2506.36 6521.17 2507.59 6526.99 2507.59 6531.64 2507.6 6535.95 2507.04 6537.09 2505.92 6537.07 2503.95 6537.03 2502.33 6538.59 2502.29 6540.56 2502.25 6542.52 2503.82 6544.15 2505.78 6544.18 2508.95 6544.24 2511.88 6542.2 2513.15 6539.7 2516.88 6532.41 2514.09 6522.18 2511.75 6514.59M2506.32 6523.75C2506.41 6521.84 2504.93 6520.23 2503.03 6520.14 2501.21 6520.05 2499.64 6521.39 2499.43 6523.2 2498.23 6533.66 2503.13 6543.72 2509.65 6550.62 2511.83 6552.9 2513.78 6556.18 2518.01 6558.05 2523.82 6560.5 2529.79 6558.96 2534.17 6556.75 2539.35 6553.74 2539.72 6548.41 2539.53 6544.05 2539.34 6539.68 2538.27 6535.24 2536.75 6531.44 2533.37 6522.92 2525.42 6517.35 2517.74 6518.15 2513.87 6518.55 2510.09 6521.23 2508.5 6525.21 2506.89 6529.28 2507.06 6534.42 2508.74 6540.62 2509.28 6542.63 2511.35 6543.82 2513.36 6543.27 2515.34 6542.74 2516.53 6540.72 2516.04 6538.73 2514.77 6533.52 2515.08 6530.03 2515.85 6528.34 2516.78 6526.29 2518.15 6526.02 2520.74 6526.96 2523.57 6527.98 2526.7 6530.88 2528.04 6534.71L2529.78 6544.28 2529.38 6547.52C2529.2 6548.05 2530 6547.42 2529.59 6547.63 2526.93 6549.16 2523.45 6549.88 2521.55 6549.2L2515.81 6544.34C2510.33 6539.36 2505.95 6531.59 2506.32 6523.75M2555.43 6592.93C2556.7 6591.3 2556.41 6588.95 2554.79 6587.68 2553.29 6586.5 2551.14 6586.64 2549.81 6588.01 2545.08 6592.85 2545.41 6600.51 2549.78 6604.14 2554.08 6607.72 2559.99 6609 2565.64 6608.81 2570.41 6608.08 2574.33 6605.92 2576.43 6602.27 2579.14 6597.64 2577.63 6593.02 2575.98 6589.12 2574.34 6585.23 2572.02 6581.71 2569.44 6579.16 2565.25 6574.74 2557.76 6573.46 2554.02 6578.34 2550.22 6583.29 2553.03 6590.63 2560.27 6598.53 2561.62 6600 2563.9 6600.1 2565.37 6598.75 2566.82 6597.42 2566.94 6595.18 2565.64 6593.7 2562.46 6590.1 2560.82 6587.18 2560.26 6585.26 2559.56 6582.89 2559.9 6583.39 2560.05 6583.34 2560.44 6583.24 2562.05 6583.5 2563.29 6584.93L2567.21 6592.39 2567.89 6596.57 2565.18 6597.55C2561.25 6598.2 2557.07 6597.61 2555.12 6596.48 2553.58 6595.59 2553.02 6595.99 2555.43 6592.93M2600.23 6635.98C2600.15 6633.93 2598.42 6632.33 2596.36 6632.41 2594.54 6632.48 2593.04 6633.86 2592.81 6635.67 2592.37 6639.21 2595.81 6643.14 2599.12 6643.48 2602.31 6643.8 2605.29 6642.8 2608.07 6641.49 2611.58 6639.32 2612.82 6636.46 2613.46 6634.04 2614.08 6631.7 2614.31 6629.71 2613.68 6627.5L2605.45 6629.86C2605.63 6630.47 2605.32 6628.11 2605.3 6628.45 2605.26 6629.04 2605.57 6627.27 2605.51 6627.43 2605.36 6627.85 2602.19 6631.93 2600.55 6637.48 2598.84 6643.25 2600.13 6651.43 2607.5 6656 2609.34 6657.14 2611.75 6656.57 2612.89 6654.73 2614.02 6652.92 2613.48 6650.54 2611.68 6649.38 2606.98 6646.37 2607.17 6643.16 2608.54 6639.35L2611.32 6633.97 2612.62 6632C2613 6631.42 2614.06 6632.06 2613.84 6628.41 2613.69 6626.05 2611.66 6624.25 2609.3 6624.4 2606.94 6624.55 2605.15 6626.58 2605.3 6628.94L2603.88 6632.81 2599.13 6634.97ZM2658.77 6694.32C2656.91 6693.41 2654.67 6694.19 2653.76 6696.05 2652.96 6697.7 2653.47 6699.7 2654.98 6700.76 2661.29 6705.2 2671.5 6705.7 2679.82 6701.73 2687 6697.61 2687.83 6689.77 2687.47 6684.32 2686.7 6676.23 2678.41 6673.07 2672.3 6674.39 2669.21 6675.06 2666.06 6677.25 2664.94 6680.67 2663.81 6684.13 2664.71 6688.1 2667.05 6692.3 2667.98 6693.98 2670.11 6694.59 2671.79 6693.65 2673.42 6692.75 2674.05 6690.73 2673.22 6689.06 2667.96 6678.39 2677.9 6683.22 2677.9 6684.63 2677.99 6688.04 2676.4 6692.16 2675.29 6692.76 2670.73 6695.64 2662.17 6695.97 2658.77 6694.32M2542.07 6076.01C2541.71 6074.29 2540.04 6073.18 2538.32 6073.54 2536.82 6073.85 2535.75 6075.19 2535.79 6076.73L2535.77 6077.65C2535.74 6077.77 2536.65 6076.27 2536.26 6076.76 2536.05 6077.02 2537.79 6075.66 2537.28 6075.93 2536.77 6076.2 2540.02 6075.66 2539.28 6075.57 2538.57 6075.48 2541.35 6076.53 2540.97 6076.25 2540.32 6075.76 2541.91 6077.34 2541.82 6077.19 2541.75 6077.05 2539.81 6070.71 2538.92 6063.93 2538.14 6059.95 2538.3 6055.55 2538.32 6050.68 2537.95 6042.39 2537.92 6035.24 2536.82 6031.58L2529.79 6033.08 2531.23 6049.48 2531.84 6053.29C2532.19 6055.01 2533.87 6056.12 2535.59 6055.76 2537.31 6055.41 2538.42 6053.72 2538.07 6052L2537.55 6048.89 2536.96 6032.92C2537.13 6030.93 2535.65 6029.19 2533.66 6029.03 2531.9 6028.88 2530.3 6030.03 2529.87 6031.74 2528.98 6035.23 2528.95 6042.39 2528.42 6050.32 2528.33 6055.27 2528 6060.3 2528.97 6065.5 2530.41 6071.22 2532.11 6075.95 2533.91 6079.14L2535.41 6081.27C2535.91 6081.8 2536.47 6082.66 2538.38 6082.81 2540.04 6082.95 2542.14 6080.95 2542.38 6079.92 2542.88 6077.79 2542.37 6077.48 2542.07 6076.01M2535.79 6093.96C2537.38 6093.2 2538.05 6091.28 2537.29 6089.68 2536.54 6088.13 2534.7 6087.44 2533.12 6088.12 2529.32 6089.76 2526.56 6090.56 2525.37 6093.98 2524.36 6096.87 2526.93 6099.51 2528.77 6100.37 2534.3 6102.96 2543.27 6103.27 2552.95 6104.36L2572.29 6107.39C2576.46 6108.09 2580.51 6109.66 2585.2 6109.48 2591.61 6109.49 2598.29 6104.53 2598.96 6097.13 2599.6 6088.6 2593.39 6082.25 2590.8 6076.82 2585.1 6066.65 2584.57 6056.23 2584.99 6043.68 2585.06 6041.75 2583.54 6040.13 2581.61 6040.07 2579.8 6040 2578.25 6041.33 2578.02 6043.12 2576.36 6055.91 2575.35 6068.36 2581.07 6081.3 2584.73 6088.31 2589.05 6094.61 2589 6096.54 2588.97 6099.25 2587.65 6100.53 2584.67 6100.78L2573.69 6098.88 2553.79 6095.94C2544.99 6095.29 2536.81 6094.91 2532.65 6093.93L2531.22 6093.47 2531.56 6093.8C2531.21 6093.36 2531.89 6096.46 2532.04 6095.83L2531.8 6096.4ZM2531.39 6025.24C2529.51 6024.42 2527.33 6025.29 2526.51 6027.16 2525.71 6029 2526.51 6031.13 2528.31 6031.99L2552.07 6040.04C2564.05 6044.38 2578.07 6050.31 2590.8 6058.5 2592.66 6059.7 2595.13 6059.16 2596.33 6057.3 2597.52 6055.44 2596.99 6052.96 2595.13 6051.77 2581.58 6043.17 2567.02 6037.14 2554.66 6032.78ZM2342.72 6050.04C2344.02 6048.86 2344.13 6046.84 2342.95 6045.53 2342.69 6045.25 2342.39 6045.02 2342.05 6044.84 2340.57 6043.96 2338.55 6044.46 2337.62 6046.03 2336.68 6047.59 2337.2 6049.61 2338.75 6050.54 2340.32 6051.48 2342.34 6050.97 2343.27 6049.41 2343.73 6048.64 2343.86 6047.72 2343.63 6046.86 2343.38 6045.95 2343.22 6049.54 2343.46 6049.02ZM2341.61 6044.63C2340.8 6044.32 2339.9 6044.34 2339.1 6044.67 2336.98 6045.54 2336.93 6047.2 2336.94 6048.03 2337.01 6052.58 2339.58 6052.71 2341.78 6054.44L2350.16 6060.24C2362.06 6066.01 2376.12 6070.19 2389.22 6072.74 2401.97 6075.22 2412.91 6076.84 2419.4 6073.18 2421.05 6072.24 2421.64 6070.14 2420.71 6068.49 2419.87 6067.01 2418.07 6066.36 2416.48 6066.97 2409.25 6069.73 2375.91 6062.04 2355.72 6050.86ZM2379.53 6081.39C2381.6 6081.46 2383.33 6079.84 2383.4 6077.77 2383.47 6075.7 2381.85 6073.96 2379.78 6073.89 2379.75 6073.89 2379.71 6073.89 2379.67 6073.89 2378.38 6073.89 2377.51 6073.16 2376.54 6070.52 2373.07 6061.01 2376 6041.38 2377.65 6036.05 2378.17 6034.38 2377.23 6032.6 2375.56 6032.08 2373.95 6031.58 2372.24 6032.42 2371.65 6034 2369.98 6038.45 2368.27 6048.22 2368.08 6058.51 2367.99 6063.63 2368.3 6068.63 2369.74 6072.9 2371.16 6077.12 2374.58 6081.22 2379.53 6081.39M2538.81 6058.3C2536.99 6058.64 2535.79 6060.39 2536.13 6062.21 2536.47 6064.03 2538.21 6065.23 2540.03 6064.9 2557.69 6061.66 2581.7 6065.12 2593.88 6074.87 2595.37 6076.06 2597.55 6075.82 2598.74 6074.33 2599.93 6072.84 2599.69 6070.66 2598.2 6069.47 2583.42 6057.74 2558.26 6054.66 2538.81 6058.3M2573.2 6091.24C2575.21 6090.57 2576.3 6088.38 2575.63 6086.37 2574.95 6084.35 2572.77 6083.27 2570.76 6083.94 2567.99 6084.91 2567.48 6084.48 2566.42 6082.6 2562.18 6075.07 2566.59 6051.91 2570.71 6048.25 2572.13 6046.99 2572.25 6044.82 2571 6043.4 2569.77 6042.02 2567.65 6041.86 2566.23 6043.05 2560.06 6048.23 2557.71 6060 2557.32 6071.17 2557.13 6076.69 2557.59 6081.97 2559.86 6086.21 2562.14 6090.45 2567.78 6093.05 2573.2 6091.24" fill="#14c7de" class="mkkdsak4732"></path>
<path transform="matrix(.1,0,0,-.1,0,803.25)" d="M1377.64 5732.65C1377.9 5730.92 1376.71 5729.3 1374.98 5729.04 1373.25 5728.77 1371.63 5729.96 1371.36 5731.7 1370.13 5739.77 1375.85 5751.13 1378.46 5759.6L1378.99 5763.43 1379.05 5763.55C1379.01 5763.83 1380.38 5761.14 1379.77 5761.95 1379.45 5762.39 1382.39 5760.1 1381.51 5760.53 1381.04 5760.75 1383.88 5760.02 1383.21 5760.07 1382.52 5760.13 1386.37 5760.79 1385.53 5760.44 1382.96 5759.37 1380.01 5760.57 1378.94 5763.14 1377.86 5765.71 1379.07 5768.66 1381.64 5769.73 1384.2 5770.81 1387.15 5769.61 1388.23 5767.04 1389.03 5765.14 1388.59 5762.95 1387.12 5761.5L1384.32 5757.23C1381.79 5748.83 1377.04 5736.6 1377.64 5732.65M1387.95 5767.68C1389.36 5765.25 1388.54 5762.14 1386.11 5760.72 1384.65 5759.88 1382.87 5759.81 1381.36 5760.53 1380.38 5761 1384.47 5760.25 1383.88 5760.15L1384.72 5760.39 1379.96 5755.3C1372.74 5747.48 1363.93 5733.3 1355 5715.69 1326.55 5659.59 1299.65 5577.77 1320.03 5548.44 1321.03 5547 1320.67 5545.03 1319.23 5544.03 1317.84 5543.05 1315.92 5543.36 1314.89 5544.71 1297.85 5567.16 1306.16 5612.84 1320.27 5657.43 1327.36 5679.84 1336.1 5701.65 1345.09 5720.56 1353.8 5738.9 1362.28 5753.85 1370.14 5763.21L1377.78 5769.3 1381.89 5770.63C1383.64 5770.78 1386.57 5770.07 1387.95 5767.68M1411.93 5799.27C1413.68 5799.05 1414.93 5797.45 1414.71 5795.69 1414.51 5794.17 1413.27 5793 1411.74 5792.9 1403.43 5792.36 1393.96 5792.66 1384.28 5786.93 1378.63 5783.8 1372.83 5779.13 1367.35 5771.55 1359.47 5761.3 1352.51 5745.14 1346.24 5724.01 1337.63 5695.68 1331.58 5661.05 1327.64 5628.6L1323.57 5584.39C1322.82 5571.68 1322.64 5561.1 1323.11 5553.8 1323.22 5552.05 1321.89 5550.54 1320.14 5550.43 1318.46 5550.32 1316.99 5551.55 1316.79 5553.22 1315.86 5560.99 1315.68 5571.79 1316.04 5584.71 1317.21 5626.09 1323.34 5682.46 1335.58 5727.05 1341.77 5749.01 1348.66 5766.41 1357.61 5778.64 1364.56 5787.55 1372.1 5793.13 1379.12 5796.53 1392.47 5802.52 1404 5800.27 1411.93 5799.27M1377.35 5804.05C1379.55 5803.3 1380.71 5800.91 1379.96 5798.71 1379.21 5796.52 1376.83 5795.35 1374.64 5796.1 1374.57 5796.13 1374.51 5796.15 1374.45 5796.17 1369.11 5798.28 1364.79 5800.33 1357.61 5795.45 1349.64 5789.79 1340.14 5776.62 1330.49 5757.83 1313.15 5724.64 1300.58 5676.39 1295.55 5630.86 1293.07 5608.49 1292.57 5587.4 1294.73 5569.87 1296.79 5553.1 1301.41 5540.07 1308.48 5533.99 1309.81 5532.85 1309.96 5530.84 1308.82 5529.52 1307.69 5528.2 1305.71 5528.04 1304.38 5529.15 1285.61 5544.87 1283.69 5586.38 1288.42 5631.62 1293.26 5677.96 1305.61 5726.86 1323.38 5761.48 1333.46 5780.81 1343.3 5794.8 1353.32 5801.71 1362.71 5808.45 1371.86 5805.92 1377.35 5804.05M1354.06 5735.54C1355.91 5734.1 1356.26 5731.43 1354.82 5729.58 1353.39 5727.72 1350.73 5727.38 1348.87 5728.81 1340.11 5735.63 1331.73 5733.32 1323.41 5723.18 1314.26 5712 1306.5 5692.53 1301.39 5668.28 1288.19 5606.67 1289.2 5523.23 1317.15 5497.59 1318.5 5496.36 1318.59 5494.25 1317.35 5492.9 1316.13 5491.56 1314.05 5491.46 1312.69 5492.67 1296.61 5507.02 1289.48 5536.2 1286.96 5568.91 1284.38 5602.38 1286.94 5638.79 1293.34 5669.95 1298.58 5695.04 1306.43 5715.56 1316.94 5728.46 1321.98 5734.64 1327.8 5739.13 1334.34 5740.63 1340.86 5742.12 1347.95 5740.25 1354.06 5735.54M1399.69 5746.93C1401.25 5745.18 1401.09 5742.49 1399.34 5740.93 1397.71 5739.49 1395.25 5739.51 1393.64 5740.98L1394.61 5740.38C1394.15 5740.56 1396.77 5740.15 1396.2 5740.11 1395.66 5740.08 1397.95 5740.66 1397.59 5740.48 1396.95 5740.16 1398.62 5741.32 1398.54 5741.22 1397.18 5739.46 1392.93 5719.09 1387.8 5694.13L1375.13 5643.46C1364.41 5601.3 1353.05 5561.56 1354.48 5527.28 1354.58 5525.04 1352.84 5523.16 1350.61 5523.06 1348.39 5522.97 1346.52 5524.67 1346.39 5526.88 1344.37 5563.04 1355.61 5603.57 1365.84 5645.75L1378.18 5696.13 1386.57 5733.14 1390.01 5743.8 1392.61 5747.48C1394.21 5748.78 1398.29 5748.51 1399.69 5746.93M2060.23 5798.2C2058.1 5798.14 2056.32 5799.81 2056.26 5801.95 2056.2 5803.84 2057.53 5805.5 2059.39 5805.86 2066.69 5807.26 2074.81 5803.76 2079.81 5797.28 2082.88 5792.67 2084.06 5787.4 2083.22 5782.32 2082.19 5776.69 2078.04 5773.19 2073.97 5770.65 2069.93 5768.13 2065.66 5766.49 2061.89 5765.89 2058.22 5765.48 2054.93 5767.79 2053.64 5770.31 2049.96 5777.55 2053.17 5788 2061.52 5794.76 2062.98 5795.94 2065.13 5795.71 2066.31 5794.25 2067.43 5792.87 2067.29 5790.85 2065.99 5789.63 2062.21 5786.09 2060.59 5781.3 2060.6 5777.84L2061.19 5774.88 2059.95 5775.21C2064.79 5776.23 2072.72 5781.87 2073 5783.88 2073.39 5786.37 2072.79 5789.09 2071.38 5791.21 2069 5795.36 2064.09 5798.32 2060.23 5798.2M1463.09 5510.88C1461.06 5511.46 1459.88 5513.57 1460.46 5515.59 1460.74 5516.57 1461.39 5517.39 1462.27 5517.88L1470.77 5520.98 1475.61 5521.75 1476.93 5521.87 1477.74 5521.89 1478.81 5521.76C1479.51 5521.61 1482.1 5521.59 1483.17 5517.65 1483.99 5514.61 1482.19 5511.48 1479.14 5510.66 1476.1 5509.83 1472.97 5511.63 1472.15 5514.68 1472.07 5514.97 1472.01 5515.28 1471.98 5515.59 1471.66 5518.72 1476.05 5510.62 1475.25 5511 1474.56 5511.31 1476.8 5510.52 1476.54 5510.57 1475.74 5510.73 1477.52 5510.48 1477.45 5510.48L1467.85 5509.07 1468.3 5509.35 1467.71 5505.66C1467.8 5505.37 1471.6 5502.58 1477.44 5501.44 1483.4 5500.28 1489.95 5500.52 1492.61 5501.68 1494.57 5502.54 1496.86 5501.64 1497.71 5499.68 1498.5 5497.88 1497.81 5495.77 1496.11 5494.79 1490.83 5491.72 1483.33 5491.5 1476 5492.39 1468.71 5493.28 1460.83 5494.7 1457.75 5502.05 1456.48 5505.29 1456.51 5508.55 1457.33 5511.67 1458.16 5514.82 1460.05 5518.48 1464.31 5519.96L1472.74 5521.53 1476.04 5521.84 1477.22 5521.89 1477.94 5521.88 1478.86 5521.75 1480.3 5521.22C1481.16 5520.77 1483.33 5519.4 1483.36 5516.23L1472.02 5517.02C1472.17 5518.02 1472.7 5513.19 1472.35 5514.06 1472.02 5514.9 1473.99 5511.75 1473.57 5512.19 1472.8 5512.98 1475.84 5510.75 1475.4 5510.93 1474.65 5511.25 1477.01 5510.52 1476.76 5510.55 1476.03 5510.66 1477.39 5510.51 1477.26 5510.5L1473.35 5510.08C1469.31 5510.22 1465.88 5510.08 1463.09 5510.88M1597.45 5448.45C1597.45 5444.69 1594.4 5441.65 1590.65 5441.65 1586.89 5441.65 1583.85 5444.69 1583.85 5448.45 1583.85 5452.2 1586.89 5455.24 1590.65 5455.24 1594.4 5455.24 1597.45 5452.2 1597.45 5448.45M1565.22 5447.76C1563.64 5449.21 1563.53 5451.67 1564.98 5453.25 1565.3 5453.61 1565.69 5453.89 1566.12 5454.11 1569.81 5455.94 1574.71 5455.77 1580.44 5456.2 1585.46 5456.07 1589.06 5456.18 1592.86 5454.87 1596.41 5453.65 1598.3 5449.78 1597.07 5446.23 1595.85 5442.68 1591.98 5440.8 1588.43 5442.02 1588.05 5442.15 1587.67 5442.32 1587.32 5442.52L1585.58 5442.86 1580.24 5443.59 1571.71 5445.34C1569.32 5445.87 1567.59 5445.59 1565.22 5447.76M1709.23 5445.7C1710.98 5445.86 1712.52 5444.58 1712.68 5442.83 1712.82 5441.36 1711.92 5440 1710.52 5439.53L1709.76 5439.23C1709.75 5439.22 1710.69 5440.29 1710.32 5439.78 1710.13 5439.53 1710.97 5441.55 1710.85 5440.98 1710.73 5440.42 1710.41 5443.67 1710.68 5442.98 1710.93 5442.34 1709.31 5444.7 1709.66 5444.41 1710.25 5443.91 1708.48 5445.05 1708.62 5445L1713.31 5444.32C1719.65 5443.45 1726.11 5440.02 1729.07 5438.85L1722.72 5427.09C1721.91 5427.66 1725.06 5426.16 1724.64 5426.25 1724.02 5426.37 1725.29 5426.18 1725.07 5426.16 1724.08 5426.07 1721.86 5425.21 1718.28 5425.63 1714.71 5426.05 1712.15 5429.28 1712.57 5432.86 1712.96 5436.27 1715.96 5438.79 1719.39 5438.6L1721.86 5439.08C1723.5 5439.41 1725.56 5440.95 1729.95 5438.43 1733.17 5436.57 1734.28 5432.46 1732.42 5429.23 1730.57 5426.02 1726.45 5424.91 1723.23 5426.77 1722.77 5427.03 1722.35 5427.34 1721.96 5427.71 1719.99 5429.57 1714.59 5433.53 1710.76 5435.11 1708.62 5435.97 1706.63 5436.23 1704.61 5438.5 1704.02 5439.17 1703.02 5440.48 1703.59 5442.52 1704.47 5445.65 1706.41 5445.31 1707.04 5445.43ZM1713.42 5428.77C1711.87 5431.38 1712.33 5434.72 1714.52 5436.82 1717.83 5439.99 1717.98 5438.58 1718.4 5438.63L1728.14 5439.1C1737.75 5438.77 1750.72 5437.57 1758.18 5438.29 1761.04 5438.56 1763.59 5436.46 1763.87 5433.59 1764.11 5431.03 1762.45 5428.67 1759.96 5428.04 1750.54 5425.65 1737.21 5426 1729.32 5425.13L1720.66 5425.23 1718.39 5425.5 1717.18 5425.8C1716.63 5425.98 1715.87 5424.62 1713.42 5428.77M1820.93 5434.25C1818.27 5434.44 1816.27 5436.74 1816.45 5439.39 1816.61 5441.66 1818.32 5443.51 1820.57 5443.84L1851.24 5449.42C1856.14 5450.53 1861 5447.46 1862.11 5442.56 1863.22 5437.67 1860.15 5432.8 1855.26 5431.69 1854.29 5431.47 1853.3 5431.41 1852.31 5431.52" fill="#ffff00" class="mkkdsak4732"></path>
<path transform="matrix(.1,0,0,-.1,0,803.25)" d="M2173 5455.25C2174.73 5454.05 2175.16 5451.68 2173.96 5449.95 2173.12 5448.75 2171.67 5448.13 2170.22 5448.36L2170.04 5448.39 2170.27 5448.38C2170.11 5448.38 2172.13 5448.8 2171.37 5448.56 2169.22 5447.88 2166.93 5449.08 2166.26 5451.23 2165.59 5453.38 2166.78 5455.67 2168.93 5456.34 2171.08 5457.02 2173.37 5455.82 2174.04 5453.67 2174.21 5453.12 2174.27 5452.53 2174.2 5451.95 2174.1 5451.18 2173.96 5453.93 2174.07 5453.56 2174.24 5452.98 2173.38 5454.89 2173.54 5454.67 2173.93 5454.11 2172.99 5455.25 2173 5455.25M2166.8 5449.93C2165.81 5451.2 2165.63 5452.92 2166.32 5454.37 2167.72 5457.31 2168.89 5456.7 2169.52 5456.84 2173 5457.63 2175.72 5456.61 2179.75 5455.52 2192.05 5450.61 2201.84 5439.63 2209.13 5428.02 2216.3 5416.61 2221.51 5404.9 2218.52 5395.8 2217.77 5393.52 2215.31 5392.27 2213.03 5393.02 2210.85 5393.74 2209.61 5396.02 2210.18 5398.24 2212.44 5407.05 2193.42 5438.8 2176.41 5444.88L2170.84 5447.46 2169.08 5448.26C2168.59 5448.5 2168.55 5447.64 2166.8 5449.93M2168.02 5442.38C2166.22 5443.36 2165.55 5445.63 2166.53 5447.43 2167.52 5449.24 2169.77 5449.91 2171.58 5448.92 2176.94 5445.98 2183.45 5439.89 2190.8 5432.03 2202.29 5419.77 2214.52 5404.2 2222.86 5389.28 2226.92 5382.04 2229.96 5375.14 2231.04 5368.85 2232.09 5362.75 2230.84 5356.36 2225.85 5353.11 2224.2 5352.03 2221.97 5352.5 2220.89 5354.16 2219.82 5355.82 2220.29 5358.03 2221.93 5359.11 2224.6 5360.86 2225.07 5365.53 2222.51 5372.91 2218.31 5385.04 2207.89 5400.42 2196.6 5414.23 2185.47 5427.82 2174.07 5439.09 2168.02 5442.38M2151.04 5393.19C2151.94 5394.69 2153.89 5395.18 2155.39 5394.28 2156.76 5393.46 2157.31 5391.75 2156.67 5390.29 2155.3 5387.16 2154.67 5385 2151.95 5383.47 2149.59 5382.15 2145.97 5383.84 2144.77 5385.58 2141.37 5390.5 2141.04 5397.88 2139.59 5406.09 2136.65 5437.04 2115.93 5477.31 2093.96 5478.58 2092.02 5478.7 2090.54 5480.36 2090.66 5482.29 2090.76 5484.15 2092.3 5485.6 2094.16 5485.6 2108.9 5485.61 2122.14 5473.54 2131.89 5458.45 2141.8 5443.1 2148.6 5424.61 2150.99 5407.92L2152.26 5390.04 2152.41 5389.31 2151.94 5389.88C2152.46 5389.42 2149.02 5390.54 2149.72 5390.61L2148.94 5390.38ZM2187.36 5377.42C2189.45 5376.84 2190.67 5374.68 2190.09 5372.6 2189.55 5370.68 2187.66 5369.46 2185.69 5369.78 2175.21 5371.46 2168.63 5384.79 2163.58 5401.34 2158.27 5418.73 2155.05 5440.58 2154.56 5463.72 2155.38 5500.7 2162.96 5539.05 2183.07 5563.36 2184.34 5564.89 2186.61 5565.11 2188.14 5563.84 2189.61 5562.62 2189.88 5560.47 2188.76 5558.93 2171.82 5535.71 2166.2 5499.09 2167.2 5464.04 2166.89 5441.65 2169.24 5420.57 2173.43 5404.1 2177.39 5388.57 2183.5 5378.5 2187.36 5377.42M2180.57 5386.77C2182.6 5387.48 2184.81 5386.4 2185.51 5384.37 2186.18 5382.45 2185.24 5380.33 2183.37 5379.53 2179.79 5377.99 2175.74 5377.7 2172.57 5379.77 2163.2 5385.89 2166.29 5401.88 2173.41 5419.07 2177.68 5429.25 2184.47 5439.23 2191.13 5448.89 2204.71 5467.38 2220.82 5482.44 2235.84 5493.99 2250.3 5505.1 2263.07 5512.55 2271.31 5515.67 2273.03 5516.32 2274.95 5515.45 2275.6 5513.73 2276.21 5512.14 2275.51 5510.35 2273.99 5509.59 2266.98 5506.05 2254.96 5498.26 2241.5 5486.95 2227.5 5475.2 2212.61 5460.16 2200.54 5442.45 2193.64 5432.93 2187.04 5423.57 2183.11 5414.87 2178.34 5404.49 2176.19 5395.54 2176.52 5390.24 2176.79 5385.82 2176.7 5385.44 2180.57 5386.77" fill="#a788be" class="mkkdsak4732"></path>
</svg>